<svg viewBox="0 0 64 64" xmlns="http://www.w3.org/2000/svg"><path d="M53.874 12.207a3.486 3.486 0 0 0-.484-1.269l-4.182-6.565a3.287 3.287 0 0 0-2.772-1.52h-8.413l5.697 9.353ZM25.772 2.853h-6.88a3.286 3.286 0 0 0-2.773 1.52l-4.182 6.566a3.489 3.489 0 0 0-.485 1.268h9.977ZM33.76 12.207a1.25 1.25 0 0 1 0 2.5h-9.751l7.177 20.808a1.52 1.52 0 0 0 2.875.001l7.578-21.921-6.543-10.742h-6.568l-4.343 9.354ZM53.162 15.027a3.418 3.418 0 0 0 .22-.32h-9.488l-6.933 19.112ZM11.945 14.707a3.537 3.537 0 0 0 .22.32L28.271 33.79 21.35 14.706ZM16.816 40.413H10.97a.93.93 0 0 0-.93.93v19.945a.93.93 0 0 0 .93.93h5.845a2.027 2.027 0 0 0 2.027-2.026V42.439a2.027 2.027 0 0 0-2.027-2.026ZM53.753 42.696a3.496 3.496 0 0 0-2.93-1.58h-2.29a5.056 5.056 0 0 0-4.687 3.136 5.014 5.014 0 0 1-.864 1.382 7.685 7.685 0 0 1-6.207 3.635h-6.787a1.35 1.35 0 0 1 0-2.7h6.752a4.494 4.494 0 0 0 2.805-1.089 4.715 4.715 0 0 0-4.721-4.364h-4.979a7 7 0 0 0-4.976 2.057l-.126.125a6.351 6.351 0 0 1-3.201 1.729v13.54h17.97a13.86 13.86 0 0 0 12.746-8.396l1.788-4.162a3.497 3.497 0 0 0-.293-3.313Z" fill="#ffffff" class="fill-000000"></path></svg>