<svg id="Icons" version="1.1" viewBox="0 0 32 32" xml:space="preserve" xmlns="http://www.w3.org/2000/svg" enable-background="new 0 0 32 32"><path d="M29 9H3c-.6 0-1 .4-1 1v16c0 .6.4 1 1 1h26c.6 0 1-.4 1-1V10c0-.6-.4-1-1-1zM15 23H7c-.6 0-1-.4-1-1 0-1.9 1-3.5 2.5-4.3-.3-.5-.5-1.1-.5-1.7 0-1.7 1.3-3 3-3s3 1.3 3 3c0 .6-.2 1.2-.5 1.7 1.5.8 2.5 2.4 2.5 4.3 0 .6-.4 1-1 1zm10-2h-3c-.6 0-1-.4-1-1s.4-1 1-1h3c.6 0 1 .4 1 1s-.4 1-1 1zm0-4h-6c-.6 0-1-.4-1-1s.4-1 1-1h6c.6 0 1 .4 1 1s-.4 1-1 1z" fill="#ffffff" class="fill-000000"></path><path d="M20 11h-8c-.6 0-1-.4-1-1V9c0-2.8 2.2-5 5-5s5 2.2 5 5v1c0 .6-.4 1-1 1zm-7-2h6c0-1.7-1.3-3-3-3s-3 1.3-3 3z" fill="#ffffff" class="fill-000000"></path></svg>